<svg width="50" height="50" viewBox="0 0 50 50" fill="none" xmlns="http://www.w3.org/2000/svg">
                    <path
                        d="M25 50C29.9445 50 34.778 48.5338 38.8892 45.7867C43.0005 43.0397 46.2048 39.1352 48.097 34.5671C49.9892 29.9989 50.4843 24.9723 49.5196 20.1227C48.555 15.2732 46.174 10.8186 42.6777 7.32234C39.1813 3.82603 34.7268 1.44501 29.8773 0.480377C25.0277 -0.484253 20.0011 0.0108299 15.4329 1.90302C10.8648 3.79521 6.96029 6.99952 4.21326 11.1108C1.46622 15.222 0 20.0555 0 25C0 31.6304 2.63392 37.9893 7.32233 42.6777C12.0107 47.3661 18.3696 50 25 50ZM25 3.12501C29.3265 3.12501 33.5558 4.40796 37.1531 6.81161C40.7504 9.21527 43.5542 12.6317 45.2099 16.6288C46.8655 20.6259 47.2987 25.0243 46.4547 29.2676C45.6106 33.5109 43.5272 37.4087 40.468 40.468C37.4087 43.5272 33.5109 45.6106 29.2676 46.4547C25.0243 47.2987 20.6259 46.8655 16.6288 45.2099C12.6317 43.5542 9.21526 40.7504 6.8116 37.1531C4.40794 33.5558 3.125 29.3265 3.125 25C3.125 19.1984 5.42968 13.6344 9.53204 9.53205C13.6344 5.42969 19.1984 3.12501 25 3.12501Z"
                        fill="white" />
                    <path
                        d="M9.31274 24.6562L21.2034 36.5469C21.3434 36.7104 21.5158 36.8433 21.7097 36.9371C21.9035 37.0308 22.1147 37.0835 22.3298 37.0919C22.545 37.1002 22.7596 37.0639 22.9601 36.9854C23.1606 36.9068 23.3427 36.7876 23.495 36.6354C23.6473 36.4831 23.7664 36.301 23.845 36.1005C23.9235 35.9 23.9598 35.6854 23.9515 35.4702C23.9432 35.255 23.8905 35.0439 23.7967 34.85C23.7029 34.6562 23.5701 34.4838 23.4065 34.3437L15.4377 26.3437L38.8752 26.3437C39.2896 26.3437 39.6871 26.1791 39.9801 25.8861C40.2731 25.5931 40.4377 25.1956 40.4377 24.7812C40.4377 24.3668 40.2731 23.9694 39.9801 23.6764C39.6871 23.3834 39.2896 23.2187 38.8752 23.2187L15.1565 23.2187L23.4065 14.9687C23.5701 14.8287 23.7029 14.6563 23.7967 14.4624C23.8905 14.2686 23.9432 14.0574 23.9515 13.8423C23.9598 13.6271 23.9235 13.4125 23.845 13.212C23.7664 13.0115 23.6473 12.8294 23.495 12.6771C23.3427 12.5248 23.1606 12.4057 22.9601 12.3271C22.7596 12.2486 22.545 12.2123 22.3298 12.2206C22.1147 12.2289 21.9035 12.2816 21.7097 12.3754C21.5158 12.4692 21.3434 12.602 21.2034 12.7656L9.31274 24.6562Z"
                        fill="white" />
                </svg>