<svg width="30" height="30" viewBox="0 0 30 30" fill="none" xmlns="http://www.w3.org/2000/svg">
<path d="M27.5044 14.9381L20.2556 12.3328L17.2256 8.52844C16.9622 8.20632 16.6303 7.9469 16.2541 7.76901C15.8779 7.59112 15.4668 7.49923 15.0506 7.5H7.55438C7.09591 7.49985 6.64436 7.61185 6.23911 7.82624C5.83386 8.04063 5.48721 8.3509 5.22938 8.73L2.68688 12.4641C2.15733 13.2412 1.87439 14.1599 1.875 15.1003V22.5C1.875 22.7486 1.97377 22.9871 2.14959 23.1629C2.3254 23.3387 2.56386 23.4375 2.8125 23.4375H4.82063C5.02456 24.2421 5.49097 24.9557 6.14604 25.4655C6.80112 25.9752 7.60746 26.252 8.4375 26.252C9.26754 26.252 10.0739 25.9752 10.729 25.4655C11.384 24.9557 11.8504 24.2421 12.0544 23.4375H17.9456C18.1496 24.2421 18.616 24.9557 19.271 25.4655C19.9261 25.9752 20.7325 26.252 21.5625 26.252C22.3925 26.252 23.1989 25.9752 23.854 25.4655C24.509 24.9557 24.9754 24.2421 25.1794 23.4375H27.1875C27.4361 23.4375 27.6746 23.3387 27.8504 23.1629C28.0262 22.9871 28.125 22.7486 28.125 22.5V15.8203C28.125 15.6273 28.0653 15.4389 27.9543 15.281C27.8432 15.1231 27.6861 15.0034 27.5044 14.9381ZM8.4375 24.375C8.06666 24.375 7.70415 24.265 7.39581 24.059C7.08746 23.853 6.84714 23.5601 6.70523 23.2175C6.56331 22.8749 6.52618 22.4979 6.59853 22.1342C6.67088 21.7705 6.84945 21.4364 7.11168 21.1742C7.3739 20.912 7.70799 20.7334 8.07171 20.661C8.43542 20.5887 8.81242 20.6258 9.15503 20.7677C9.49764 20.9096 9.79048 21.15 9.99651 21.4583C10.2025 21.7666 10.3125 22.1292 10.3125 22.5C10.3118 22.9971 10.114 23.4735 9.7625 23.825C9.41103 24.1765 8.93455 24.3743 8.4375 24.375ZM21.5625 24.375C21.1917 24.375 20.8291 24.265 20.5208 24.059C20.2125 23.853 19.9721 23.5601 19.8302 23.2175C19.6883 22.8749 19.6512 22.4979 19.7235 22.1342C19.7959 21.7705 19.9745 21.4364 20.2367 21.1742C20.4989 20.912 20.833 20.7334 21.1967 20.661C21.5604 20.5887 21.9374 20.6258 22.28 20.7677C22.6226 20.9096 22.9155 21.15 23.1215 21.4583C23.3275 21.7666 23.4375 22.1292 23.4375 22.5C23.4368 22.9971 23.239 23.4735 22.8875 23.825C22.536 24.1765 22.0596 24.3743 21.5625 24.375ZM26.25 21.5625H25.1794C24.9754 20.7579 24.509 20.0443 23.854 19.5345C23.1989 19.0248 22.3925 18.748 21.5625 18.748C20.7325 18.748 19.9261 19.0248 19.271 19.5345C18.616 20.0443 18.1496 20.7579 17.9456 21.5625H12.0544C11.8504 20.7579 11.384 20.0443 10.729 19.5345C10.0739 19.0248 9.26754 18.748 8.4375 18.748C7.60746 18.748 6.80112 19.0248 6.14604 19.5345C5.49097 20.0443 5.02456 20.7579 4.82063 21.5625H3.75V15.1003C3.7499 14.5358 3.91977 13.9844 4.2375 13.5178L6.77906 9.78563C6.86501 9.65914 6.98058 9.5556 7.11572 9.48402C7.25086 9.41245 7.40145 9.37502 7.55438 9.375H15.0506C15.1871 9.37458 15.322 9.40417 15.4458 9.46169C15.5696 9.5192 15.6792 9.60323 15.7669 9.70781L18.9544 13.7091C19.0628 13.8451 19.2069 13.9484 19.3706 14.0072L26.25 16.4794V21.5625Z" fill="white"/>
</svg>
